<svg width="2000" height="2000" xmlns="http://www.w3.org/2000/svg" preserveAspectRatio="xMidYMid meet">
 <metadata>Created by potrace 1.15, written by Peter Selinger 2001-2017</metadata>

 <g>
  <title>background</title>
  <rect fill="none" id="canvas_background" height="402" width="582" y="-1" x="-1"/>
 </g>
 <g>
  <title>Layer 1</title>
  <metadata transform="matrix(2.7776806892825476,0,0,2.7776806892825476,0,0) ">Created by Lukas Pessoa Dantas</metadata>
  <metadata transform="matrix(2.7776806892825476,0,0,2.7776806892825476,0,0) ">Created by Lukas Pessoa Dantas</metadata>

  <metadata transform="matrix(2.7776806892825476,0,0,2.7776806892825476,0,0) " id="svg_37">image/svg+xml</metadata>
  <g stroke="null" id="svg_53">
   <g stroke="null" transform="matrix(9.84124432504215,0,0,9.774579237348195,-13225.888750061991,-13067.885987674983) " id="svg_47">
    <path stroke="null" id="svg_49" d="m1421.55756,1422.641872c20.91,-5.56 44.12,-4 63.41,6.18c7.8,4.13 15.14,9.47 20.55,16.51c0.12,1.32 -1.03,2.31 -1.58,3.41c-11.16,17.42 -30.68,28.82 -51.16,30.96c-0.04,17.93 0.04,35.86 -0.04,53.79c-4.8,0.01 -9.59,-0.01 -14.39,0.01c-0.1,-17.93 -0.01,-35.87 -0.04,-53.81c-19.08,-2.01 -37.39,-11.96 -48.77,-27.51c-1.37,-2.21 -3.56,-4.22 -3.98,-6.82c8.93,-11.41 22.28,-18.67 36,-22.72z" fill="#ffffff"/>
   </g>
   <g stroke="null" transform="matrix(9.84124432504215,0,0,9.774579237348195,-13225.888750061991,-13067.885987674983) " id="svg_46">
    <path stroke="null" id="svg_50" d="m1441.44756,1339.231872l7.61,0c18.43,1.13 36.67,8.5 49.69,21.78c13.1,12.48 20.64,30.11 21.79,48.07l0,5.77c-0.33,7.06 -1.68,14.04 -3.66,20.82c-14.52,-15.32 -34.6,-24.83 -55.41,-27.65c-23.13,-3.21 -47.58,0.41 -67.87,12.31c-7.24,4.04 -13.57,9.47 -19.41,15.31c-1.87,-6.33 -3.1,-12.84 -3.65,-19.42l0,-7.37c1.2,-17.63 8.49,-34.97 21.27,-47.33c12.93,-13.46 31.17,-20.98 49.64,-22.29m-24.21,11.6c-13.92,6.06 -25.87,16.67 -32.97,30.15c-7.3,13 -9.52,28.49 -7.09,43.13c1.01,-0.39 2.04,-0.78 2.89,-1.47c18.7,-14.81 42.93,-21.51 66.53,-21.47c20.86,0.42 42.01,5.91 59.39,17.75c2.64,1.72 4.87,4.11 7.88,5.22c2.62,-14.98 0.05,-30.84 -7.53,-44.05c-8.62,-15.81 -24,-27.3 -41.11,-32.45c-15.72,-4.37 -33.06,-3.6 -47.99,3.19z" fill="#010101"/>
    <path stroke="null" id="svg_51" d="m1407.39756,1421.821872c19.68,-8.75 42.4,-10.47 63.15,-4.66c16.61,4.34 32.05,13.98 42.16,28c-10.71,20.61 -31.26,35.65 -54.19,39.48c-0.08,18.2 -0.01,36.39 -0.03,54.59l-25.89,0c-0.03,-18.19 0.04,-36.38 -0.04,-54.57c-22.93,-3.86 -43.47,-18.87 -54.19,-39.48c7.35,-10.21 17.58,-18.21 29.03,-23.36m14.16,0.82c-13.72,4.05 -27.07,11.31 -36,22.72c0.42,2.6 2.61,4.61 3.98,6.82c11.38,15.55 29.69,25.5 48.77,27.51c0.03,17.94 -0.06,35.88 0.04,53.81c4.8,-0.02 9.59,0 14.39,-0.01c0.08,-17.93 0,-35.86 0.04,-53.79c20.48,-2.14 40,-13.54 51.16,-30.96c0.55,-1.1 1.7,-2.09 1.58,-3.41c-5.41,-7.04 -12.75,-12.38 -20.55,-16.51c-19.29,-10.18 -42.5,-11.74 -63.41,-6.18z" fill="#010101"/>
   </g>
   <g stroke="null" transform="matrix(9.84124432504215,0,0,9.774579237348195,-13225.888750061991,-13067.885987674983) " id="svg_45">
    <path stroke="null" id="svg_52" d="m1417.23756,1350.831872c14.93,-6.79 32.27,-7.56 47.99,-3.19c17.11,5.15 32.49,16.64 41.11,32.45c7.58,13.21 10.15,29.07 7.53,44.05c-3.01,-1.11 -5.24,-3.5 -7.88,-5.22c-17.38,-11.84 -38.53,-17.33 -59.39,-17.75c-23.6,-0.04 -47.83,6.66 -66.53,21.47c-0.85,0.69 -1.88,1.08 -2.89,1.47c-2.43,-14.64 -0.21,-30.13 7.09,-43.13c7.1,-13.48 19.05,-24.09 32.97,-30.15z" fill="#e00000"/>
   </g>
  </g>
 </g>
</svg>